<?xml version="1.0" encoding="UTF-8" standalone="no"?>
<svg
   xmlns:dc="http://purl.org/dc/elements/1.1/"
   xmlns:cc="http://creativecommons.org/ns#"
   xmlns:rdf="http://www.w3.org/1999/02/22-rdf-syntax-ns#"
   xmlns:svg="http://www.w3.org/2000/svg"
   xmlns="http://www.w3.org/2000/svg"
   xmlns:sodipodi="http://sodipodi.sourceforge.net/DTD/sodipodi-0.dtd"
   xmlns:inkscape="http://www.inkscape.org/namespaces/inkscape"
   xml:space="preserve"
   viewBox="0 0 519.104 119.33"
   version="1.1"
   id="svg2"
   sodipodi:docname="operry.svg"
   width="519.104"
   height="119.33"
   inkscape:version="0.92.4 (5da689c313, 2019-01-14)"><metadata
     id="metadata3750"><rdf:RDF><cc:Work
         rdf:about=""><dc:format>image/svg+xml</dc:format><dc:type
           rdf:resource="http://purl.org/dc/dcmitype/StillImage" /><dc:title></dc:title></cc:Work></rdf:RDF></metadata><defs
     id="defs3748" /><sodipodi:namedview
     pagecolor="#ffffff"
     bordercolor="#666666"
     borderopacity="1"
     objecttolerance="10"
     gridtolerance="10"
     guidetolerance="10"
     inkscape:pageopacity="0"
     inkscape:pageshadow="2"
     inkscape:window-width="1920"
     inkscape:window-height="986"
     id="namedview3746"
     showgrid="false"
     fit-margin-top="0"
     fit-margin-left="0"
     fit-margin-right="0"
     fit-margin-bottom="0"
     inkscape:zoom="0.7552"
     inkscape:cx="108.87144"
     inkscape:cy="-3.2450018"
     inkscape:window-x="-11"
     inkscape:window-y="-11"
     inkscape:window-maximized="1"
     inkscape:current-layer="svg2" /><g
     id="g3743"
     style="text-anchor:middle"
     transform="translate(-252.448,-324.335)"><g
       style="font-weight:700;font-size:72px;line-height:1;font-family:'Comfortaa Bold Alt1';font-variant-ligatures:none;text-align:center;fill:#4e75b0"
       font-weight="700"
       font-size="72"
       id="g3741"><path
         style="line-height:1;font-variant-ligatures:none;text-align:center"
         d="m 315.198,330.053 c -6.32,-3.612 -13.393,-5.417 -21.218,-5.417 -8.126,0 -15.198,1.805 -21.518,5.417 -6.32,3.611 -11.286,8.427 -14.747,14.747 -3.612,6.32 -5.267,13.543 -5.267,21.67 0,8.125 1.655,15.198 5.267,21.518 3.46,6.32 8.427,11.286 14.747,14.897 6.32,3.612 13.392,5.267 21.518,5.267 7.976,0 15.048,-1.655 21.369,-5.267 6.32,-3.611 11.135,-8.577 14.747,-14.897 3.46,-6.32 5.266,-13.393 5.266,-21.519 0,-8.126 -1.805,-15.349 -5.417,-21.669 -3.611,-6.32 -8.427,-11.136 -14.747,-14.747 z m -35.062,11.737 c 4.063,-2.407 8.728,-3.611 13.844,-3.611 5.117,0 9.631,1.204 13.694,3.611 4.063,2.408 7.223,5.87 9.48,10.083 2.257,4.363 3.461,9.179 3.461,14.596 0,5.417 -1.204,10.383 -3.46,14.597 -2.258,4.213 -5.418,7.524 -9.481,9.931 -4.063,2.408 -8.577,3.612 -13.694,3.612 -5.116,0 -9.78,-1.204 -13.844,-3.612 -4.063,-2.407 -7.223,-5.718 -9.48,-9.931 -2.408,-4.214 -3.461,-9.18 -3.461,-14.597 0,-5.417 1.053,-10.233 3.46,-14.596 2.258,-4.214 5.418,-7.675 9.481,-10.083 z m 161.131,24.68 c 0,-7.826 -1.805,-14.898 -5.417,-21.219 a 40.128,40.128 0 0 0 -15.048,-15.048 c -6.32,-3.611 -13.393,-5.567 -21.067,-5.567 h -34.159 c -2.107,0 -3.762,0.752 -5.116,2.106 -1.505,1.505 -2.107,3.16 -2.107,5.117 v 103.229 c 0,2.408 0.602,4.213 2.107,5.568 1.354,1.505 3.16,2.106 5.567,2.106 2.107,0 3.913,-0.601 5.418,-2.106 1.504,-1.355 2.257,-3.16 2.257,-5.568 v -40.63 c 3.46,4.364 7.674,7.675 12.79,10.083 4.966,2.407 10.384,3.611 16.252,3.611 7.224,0 13.694,-1.806 19.563,-5.417 5.869,-3.612 10.533,-8.578 13.844,-14.898 3.31,-6.32 5.116,-13.543 5.116,-21.368 z m -14.747,0 c 0,5.416 -1.204,10.232 -3.611,14.445 -2.408,4.214 -5.568,7.675 -9.63,10.082 -4.064,2.408 -8.578,3.612 -13.544,3.612 -5.116,0 -9.63,-1.204 -13.694,-3.612 -4.063,-2.407 -7.223,-5.868 -9.48,-10.082 -2.408,-4.213 -3.461,-9.029 -3.461,-14.446 0,-5.267 1.053,-10.082 3.46,-14.446 2.258,-4.213 5.418,-7.674 9.481,-10.082 4.063,-2.408 8.578,-3.762 13.694,-3.762 4.966,0 9.48,1.354 13.543,3.762 4.063,2.408 7.223,5.869 9.63,10.082 2.408,4.364 3.612,9.18 3.612,14.446 z m 109.569,3.46 c 1.203,-1.204 1.956,-2.859 1.956,-4.815 0,-7.825 -1.505,-14.898 -4.515,-21.067 -3.01,-6.02 -7.373,-10.835 -12.94,-14.296 -5.72,-3.31 -12.34,-5.116 -20.015,-5.116 -7.825,0 -14.897,1.805 -21.067,5.417 -6.17,3.611 -10.985,8.577 -14.446,14.897 -3.461,6.32 -5.116,13.544 -5.116,21.52 0,8.125 1.805,15.198 5.417,21.518 3.611,6.32 8.728,11.286 15.349,14.897 6.47,3.612 13.844,5.267 22.12,5.267 4.515,0 9.33,-0.752 14.447,-2.558 5.116,-1.655 9.33,-3.913 12.79,-6.621 1.505,-1.204 2.408,-2.709 2.408,-4.515 0,-1.805 -0.903,-3.611 -2.709,-5.116 a 7.392,7.392 0 0 0 -4.514,-1.505 c -1.956,0 -3.612,0.602 -4.966,1.656 -2.107,1.655 -4.815,3.01 -8.126,4.062 -3.31,1.204 -6.32,1.656 -9.33,1.656 -7.674,0 -14.145,-2.107 -19.411,-6.47 -5.267,-4.214 -8.427,-9.933 -9.48,-17.005 h 57.182 c 1.956,0 3.611,-0.602 4.966,-1.806 z m -53.42,-26.334 c 4.514,-3.912 10.533,-6.02 17.906,-6.02 6.621,0 11.888,2.108 16.102,6.02 4.063,4.063 6.62,9.48 7.524,16.101 h -50.11 c 1.204,-6.62 4.063,-12.038 8.577,-16.1 z M 610.44,326.742 c -3.01,-1.504 -7.223,-2.407 -12.49,-2.407 -5.116,0 -9.781,1.053 -14.145,3.01 -4.515,2.106 -8.126,4.815 -11.136,8.276 v -2.86 c 0,-4.965 -2.558,-7.523 -7.524,-7.523 -2.407,0 -4.364,0.752 -5.567,1.956 -1.355,1.354 -1.957,3.16 -1.957,5.568 v 67.264 c 0,2.558 0.602,4.515 1.957,5.718 1.203,1.204 3.16,1.806 5.567,1.806 2.408,0 4.364,-0.602 5.568,-1.956 1.204,-1.204 1.956,-3.16 1.956,-5.568 v -43.94 c 0,-5.568 2.107,-10.082 6.621,-13.393 4.364,-3.31 10.233,-4.966 17.456,-4.966 2.408,0 5.718,0.452 9.781,1.054 0.903,0.3 1.656,0.3 2.258,0.3 3.01,0 5.116,-1.504 6.019,-4.815 0,-0.3 0.15,-0.752 0.15,-1.504 0,-2.408 -1.505,-4.364 -4.514,-6.02 z m 73.182,0 c -3.01,-1.504 -7.223,-2.407 -12.49,-2.407 -5.116,0 -9.78,1.053 -14.145,3.01 -4.514,2.106 -8.125,4.815 -11.135,8.276 v -2.86 c 0,-4.965 -2.558,-7.523 -7.524,-7.523 -2.408,0 -4.364,0.752 -5.568,1.956 -1.354,1.354 -1.956,3.16 -1.956,5.568 v 67.264 c 0,2.558 0.602,4.515 1.956,5.718 1.204,1.204 3.16,1.806 5.568,1.806 2.408,0 4.364,-0.602 5.568,-1.956 1.204,-1.204 1.956,-3.16 1.956,-5.568 v -43.94 c 0,-5.568 2.107,-10.082 6.621,-13.393 4.364,-3.31 10.233,-4.966 17.456,-4.966 2.407,0 5.718,0.452 9.781,1.054 0.903,0.3 1.655,0.3 2.257,0.3 3.01,0 5.116,-1.504 6.02,-4.815 0,-0.3 0.15,-0.752 0.15,-1.504 0,-2.408 -1.505,-4.364 -4.515,-6.02 z m 87.93,5.117 c 0,-2.709 -1.655,-4.665 -4.665,-5.869 -1.204,-0.451 -2.407,-0.752 -3.611,-0.752 -2.709,0 -4.665,1.504 -5.869,4.363 l -24.227,54.625 -27.538,-54.775 c -1.505,-2.709 -3.612,-4.213 -6.32,-4.213 -1.204,0 -2.107,0.3 -3.01,0.601 a 7.68,7.68 0 0 0 -3.16,2.559 c -0.903,1.203 -1.204,2.407 -1.204,3.611 0,1.204 0.15,2.257 0.753,3.16 l 33.858,64.255 -15.048,33.858 c -0.602,1.204 -0.903,2.408 -0.903,3.612 0,2.708 1.505,4.665 4.514,5.868 1.354,0.602 2.558,0.903 3.612,0.903 2.708,0 4.665,-1.504 5.868,-4.665 l 46.047,-103.53 c 0.602,-1.354 0.903,-2.558 0.903,-3.611 z"
         id="path3739"
         inkscape:connector-curvature="0" /></g></g></svg>